<svg xmlns="http://www.w3.org/2000/svg"><symbol id="svelte" viewBox="0 0 519 139"><path fill="#4a4a55" d="M172.443 100.338a24.08 24.08 0 0 1-13.72-3.877 19.872 19.872 0 0 1-8.01-10.61l8.35-3.067a15.405 15.405 0 0 0 5.455 6.604 14.366 14.366 0 0 0 8.265 2.429 12.137 12.137 0 0 0 7.882-2.386 8.275 8.275 0 0 0 2.94-6.817 7.456 7.456 0 0 0-.81-3.452 10.325 10.325 0 0 0-1.831-2.6 12.361 12.361 0 0 0-3.154-2.087q-2.131-1.064-3.536-1.62-1.406-.552-4.133-1.49-3.41-1.193-5.113-1.875a38.46 38.46 0 0 1-4.474-2.259 16.538 16.538 0 0 1-4.175-3.152 15.29 15.29 0 0 1-2.514-4.134 14.77 14.77 0 0 1 4.005-16.787q5.114-4.516 13.89-4.516 7.328 0 12.058 3.238a15.658 15.658 0 0 1 6.349 8.607l-8.18 2.727a9.524 9.524 0 0 0-3.964-4.389 13.31 13.31 0 0 0-6.944-1.662 10.703 10.703 0 0 0-6.69 1.875 6.29 6.29 0 0 0-2.429 5.283 5.513 5.513 0 0 0 1.874 4.091 12.885 12.885 0 0 0 3.92 2.642q2.047.852 6.222 2.3 2.555.94 3.79 1.407t3.623 1.576a24.997 24.997 0 0 1 3.664 2.003 32.135 32.135 0 0 1 2.982 2.428 12.723 12.723 0 0 1 2.6 3.11 17.39 17.39 0 0 1 1.534 3.834 17.583 17.583 0 0 1 .64 4.816q0 8.352-5.71 13.08-5.71 4.73-14.656 4.73zm54.622-1.022l-20.452-59.652h9.545l13.549 41.586a64.466 64.466 0 0 1 1.875 6.817 64.034 64.034 0 0 1 1.875-6.817l13.378-41.586h9.46l-20.368 59.652zm47.294 0V39.664h36.984v8.352h-28.12v16.361h18.15v8.352h-18.15v18.235h29.994v8.352zm61.44 0V39.664h8.863v51.13h29.144v8.522zm71.41-51.13v51.13h-8.863v-51.13h-16.872v-8.522h42.608v8.522zm35.193 51.13V39.664h36.985v8.352h-28.12v16.361h18.15v8.352h-18.15v18.235h29.994v8.352z"/><path fill="#ff3e00" d="M110.286 28.319c-10.4-14.885-30.94-19.297-45.792-9.835L38.412 35.108A29.923 29.923 0 0 0 24.893 55.15a31.514 31.514 0 0 0 3.108 20.231 30.006 30.006 0 0 0-4.476 11.183 31.889 31.889 0 0 0 5.447 24.116c10.402 14.886 30.942 19.297 45.791 9.835l26.083-16.624a29.918 29.918 0 0 0 13.519-20.043 31.528 31.528 0 0 0-3.106-20.232 30.001 30.001 0 0 0 4.474-11.182 31.88 31.88 0 0 0-5.447-24.116"/><path fill="#fff" d="M61.946 112.082a20.718 20.718 0 0 1-22.236-8.243 19.173 19.173 0 0 1-3.277-14.503 18.189 18.189 0 0 1 .624-2.435l.49-1.498 1.337.981a33.647 33.647 0 0 0 10.203 5.098l.97.294-.09.968a5.847 5.847 0 0 0 1.052 3.878 6.239 6.239 0 0 0 6.695 2.485 5.746 5.746 0 0 0 1.602-.704L85.4 81.78a5.431 5.431 0 0 0 2.451-3.631 5.794 5.794 0 0 0-.988-4.371 6.244 6.244 0 0 0-6.697-2.487 5.743 5.743 0 0 0-1.6.704l-9.954 6.345a19.034 19.034 0 0 1-5.296 2.326 20.718 20.718 0 0 1-22.237-8.243 19.173 19.173 0 0 1-3.277-14.502 17.99 17.99 0 0 1 8.13-12.052l26.082-16.623a19.003 19.003 0 0 1 5.3-2.329A20.718 20.718 0 0 1 99.55 35.16a19.173 19.173 0 0 1 3.277 14.503 18.4 18.4 0 0 1-.624 2.435l-.49 1.498-1.337-.98a33.617 33.617 0 0 0-10.203-5.1l-.97-.294.09-.968a5.858 5.858 0 0 0-1.052-3.878 6.239 6.239 0 0 0-6.695-2.485 5.746 5.746 0 0 0-1.603.704L53.86 57.22a5.422 5.422 0 0 0-2.449 3.631 5.786 5.786 0 0 0 .986 4.372 6.244 6.244 0 0 0 6.697 2.486 5.765 5.765 0 0 0 1.602-.704l9.952-6.343a18.979 18.979 0 0 1 5.296-2.327 20.718 20.718 0 0 1 22.237 8.242 19.173 19.173 0 0 1 3.277 14.503 17.998 17.998 0 0 1-8.13 12.053l-26.081 16.62a19.003 19.003 0 0 1-5.3 2.33"/></symbol><symbol id="nuxt" viewBox="0 0 163 28"><g fill="none" fill-rule="evenodd"><path fill="#000" d="M64.715 8.206c.222.231.341.542.33.863v16.598c.01.355-.123.7-.369.956-.246.258-.589.4-.945.39-.2 0-.398-.032-.587-.094a1.007 1.007 0 0 1-.451-.288l-10.753-14v13.18a1.167 1.167 0 0 1-1.202 1.201 1.116 1.116 0 0 1-.847-.342 1.19 1.19 0 0 1-.327-.86V9.179a1.264 1.264 0 0 1 .389-.941c.24-.246.57-.38.914-.37.215 0 .43.04.63.12.182.071.342.19.462.343l10.707 14.031V9.07a1.167 1.167 0 0 1 1.201-1.202c.318-.012.626.111.848.339zm22.089 0c.232.258.355.597.342.945v10.5a7.86 7.86 0 0 1-.957 3.888 6.953 6.953 0 0 1-2.64 2.695 7.451 7.451 0 0 1-3.788.988 7.587 7.587 0 0 1-3.83-.968 6.93 6.93 0 0 1-2.653-2.695 7.86 7.86 0 0 1-.956-3.889V9.17c-.01-.356.13-.7.389-.945.262-.257.617-.397.983-.389.346 0 .677.14.918.389.255.241.396.579.39.93v10.5c-.015.896.212 1.78.656 2.558a4.721 4.721 0 0 0 4.103 2.392 4.884 4.884 0 0 0 2.435-.63A4.752 4.752 0 0 0 84 22.213a4.939 4.939 0 0 0 .669-2.559v-10.5a1.384 1.384 0 0 1 .327-.945c.23-.257.561-.4.906-.388.342-.008.67.132.902.385zm21.05 16.838c.164.226.25.5.245.778a1.19 1.19 0 0 1-.388.93 1.3 1.3 0 0 1-.891.354c-.426.016-.83-.19-1.066-.545l-5.316-7.097-5.195 7.085c-.234.36-.636.576-1.066.572a1.132 1.132 0 0 1-.836-.342A1.062 1.062 0 0 1 93 26a1.47 1.47 0 0 1 .33-.902l5.608-7.634-5.635-7.576a1.272 1.272 0 0 1-.276-.777 1.245 1.245 0 0 1 .389-.93 1.28 1.28 0 0 1 1.505-.249c.193.092.358.233.478.409l5.254 7.058 5.204-6.988a1.32 1.32 0 0 1 1.038-.603c.33.002.643.143.863.389.24.213.38.516.39.836-.01.28-.105.552-.273.778l-5.709 7.599 5.69 7.633zm19.737-16.838c.257.234.399.57.388.917.01.344-.132.674-.388.903-.264.222-.6.339-.945.326h-4.87v15.35c.007.35-.134.688-.388.93-.57.507-1.43.507-2 0a1.26 1.26 0 0 1-.388-.93v-15.35h-4.857a1.338 1.338 0 0 1-.941-.338 1.194 1.194 0 0 1-.37-.918 1.17 1.17 0 0 1 .37-.89c.258-.23.595-.352.94-.339h12.504c.346-.012.685.109.945.339z"/><path fill="#00C58E" d="M133.58 26.522a5.756 5.756 0 0 1-2.136-2.108 1.384 1.384 0 0 1-.248-.738c0-.343.15-.67.412-.891.222-.233.526-.372.848-.389.488.046.935.294 1.232.685.608 1 1.7 1.603 2.87 1.586a3.5 3.5 0 0 0 2.544-1.01 3.34 3.34 0 0 0 1.042-2.49V9.177a1.229 1.229 0 0 1 .408-.929c.255-.25.6-.39.957-.389.361-.017.714.117.972.37.247.25.38.59.37.941v12.017a5.923 5.923 0 0 1-.821 3.064 6.04 6.04 0 0 1-2.256 2.213c-.98.555-2.09.84-3.216.824a5.93 5.93 0 0 1-2.979-.766zm18.806.202a9.014 9.014 0 0 1-2.928-1.816 1.462 1.462 0 0 1-.572-1.124 1.24 1.24 0 0 1 .389-.886c.233-.25.56-.392.902-.39a1.12 1.12 0 0 1 .778.3 7.607 7.607 0 0 0 2.256 1.49c.84.334 1.737.498 2.64.482a5.13 5.13 0 0 0 2.913-.797 2.333 2.333 0 0 0 1.19-1.995 2.559 2.559 0 0 0-1.19-2.201 10.574 10.574 0 0 0-3.539-1.3c-1.882-.388-3.325-1.014-4.34-1.89-1.015-.874-1.517-2.088-1.517-3.635a4.838 4.838 0 0 1 .856-2.85 5.444 5.444 0 0 1 2.333-1.875 8.373 8.373 0 0 1 3.391-.658 9.271 9.271 0 0 1 3.2.549 6.73 6.73 0 0 1 2.435 1.45c.374.276.605.704.63 1.167 0 .33-.133.645-.37.875a1.167 1.167 0 0 1-.89.389.898.898 0 0 1-.626-.222 5.643 5.643 0 0 0-1.971-1.201 6.545 6.545 0 0 0-2.388-.475 5.013 5.013 0 0 0-2.913.755 2.419 2.419 0 0 0 0 4.032c.996.581 2.084.989 3.216 1.206a16.96 16.96 0 0 1 3.5 1.093 4.931 4.931 0 0 1 2.092 1.75c.526.883.782 1.901.735 2.928a4.69 4.69 0 0 1-.886 2.816 5.864 5.864 0 0 1-2.423 1.917 8.167 8.167 0 0 1-3.364.684 10.138 10.138 0 0 1-3.539-.568z"/><path d="M2.333 25.538h8.824c.05-.335.159-.658.32-.956l8.275-14.553-4.305-7.567L2.333 25.538zm28.56 0H35L24.22 6.588l-1.944 3.441 8.26 14.553c.176.294.297.618.357.956zm-9.885-13.3l-7.564 13.3h15.124z"/><path fill="#00C58E" d="M11.363 26.787a1.377 1.377 0 0 1-.074-.152 1.944 1.944 0 0 1-.132-1.097H2.333L15.447 2.462l4.305 7.567L21 7.821l-3.753-6.612C17.142 1.02 16.508 0 15.416 0c-.494 0-1.202.214-1.778 1.225L.354 24.582c-.113.202-.661 1.264-.117 2.205.25.427.778.937 1.945.937h11.126c-1.16 0-1.696-.502-1.945-.937z"/><path fill="#108775" d="M36.944 24.582L26.028 5.352c-.112-.203-.742-1.226-1.84-1.226-.493 0-1.2.21-1.776 1.221L21 7.821l1.256 2.208 1.945-3.441L35 25.538h-4.107a1.84 1.84 0 0 1-.085.934 1.19 1.19 0 0 1-.086.19l-.035.07c-.552.941-1.746.992-1.98.992h6.425c.237 0 1.427-.05 1.98-.992.245-.428.42-1.147-.168-2.15z"/><path d="M30.687 26.732l.035-.07a1.19 1.19 0 0 0 .086-.19 1.84 1.84 0 0 0 .085-.934 2.843 2.843 0 0 0-.357-.956l-8.272-14.553L21 7.821l-1.256 2.208-8.268 14.553c-.16.298-.268.621-.319.956-.066.37-.024.75.12 1.097a1.377 1.377 0 0 0 .075.152c.249.427.777.937 1.944.937h15.4c.245 0 1.439-.05 1.991-.992zM21 12.238l7.56 13.3H13.444L21 12.238z"/></g></symbol><symbol id="recoil" viewBox="0 0 2546.8 901.7"><style>.st0{fill:#1c1e21}</style><path d="M97.3 393c6.7-1.4 13.6-2.4 20.5-3l53.6-5.1-72.8-79.8c-21.9-24.1-34-55.3-34-87.9H4.4c0 47.6 17.7 93.3 49.8 128.5L97.3 393zm188 116.9c-5.4 1-10.9 1.7-16.4 2.3l-58 5.5 72.6 79.6c21.9 24.1 34 55.3 34 87.9h60.3c0-47.6-17.7-93.2-49.8-128.5l-42.7-46.8z" class="st0"/><path d="M385 333c-9.9-49.2-48.5-85-98.3-91.3l-9.2-1.2c-31.1-3.9-54.6-30.5-54.6-61.8v-32.1c27.6-11.5 47-38.7 47-70.4 0-42.1-34.1-76.2-76.2-76.2s-76.2 34.1-76.2 76.2c0 31 18.6 57.7 45.2 69.6v32.9c0 61.7 46.1 114 107.3 121.6l9.2 1.2c28.7 3.6 43 24.8 46.8 43.4 3.8 18.6-1.1 43.7-26.2 58.2-12.3 7.1-25.6 11.4-39.7 12.7l-138.3 13c-22.8 2.2-44.4 9.1-64.2 20.5-43.5 25.2-65.2 73.2-55.2 122.4 9.9 49.2 48.5 85 98.3 91.3l9.2 1.2c31.1 3.9 54.6 30.5 54.6 61.8v29.2c-27.5 11.5-46.8 38.7-46.8 70.3 0 42.1 34.1 76.2 76.2 76.2s76.2-34.1 76.2-76.2c0-31.1-18.7-57.9-45.4-69.7V726c0-61.7-46.1-114-107.3-121.6l-9.2-1.2c-28.7-3.6-43-24.8-46.8-43.4-3.8-18.6 1.1-43.7 26.2-58.2 12.3-7.1 25.6-11.4 39.7-12.7l138.3-13c22.8-2.2 44.4-9.1 64.2-20.5 43.5-25.2 65.1-73.2 55.2-122.4zm1041.6 342H1224c-69.8 0-126.6-56.8-126.6-126.6V362.8c0-69.8 56.8-126.6 126.6-126.6h108.3c69.8 0 126.6 56.8 126.6 126.6V392c0 53.7-43.7 97.4-97.4 97.4h-206.1v59.1c0 37.8 30.8 68.6 68.6 68.6h202.5V675zm-271.1-243.6h206.1c21.7 0 39.4-17.7 39.4-39.4v-29.2c0-37.8-30.8-68.6-68.6-68.6H1224c-37.8 0-68.6 30.8-68.6 68.6v68.6zm1207.9-158.7h58v395.2h-58zM2171.5 675h-108.3c-69.8 0-126.6-56.8-126.6-126.6V362.8c0-69.8 56.8-126.6 126.6-126.6h108.3c69.8 0 126.6 56.8 126.6 126.6v185.7c-.1 69.8-56.8 126.5-126.6 126.5zm-108.3-380.8c-37.8 0-68.6 30.8-68.6 68.6v185.7c0 37.8 30.8 68.6 68.6 68.6h108.3c37.8 0 68.6-30.8 68.6-68.6V362.8c0-37.8-30.8-68.6-68.6-68.6h-108.3zm425.7-147.3h58V668h-58zm-125.5 1.9h58v54.3h-58zm-616.1 531H1639c-69.8 0-126.6-56.8-126.6-126.6V367.5c0-69.8 56.8-126.6 126.6-126.6h108.3c69.8 0 126.6 56.8 126.6 126.6v29h-58v-29c0-37.8-30.8-68.6-68.6-68.6H1639c-37.8 0-68.6 30.8-68.6 68.6v185.7c0 37.8 30.8 68.6 68.6 68.6h108.3c37.8 0 68.6-30.8 68.6-68.6v-29h58v29c0 69.8-56.8 126.6-126.6 126.6zm-735.6 5.3h-58v-20c0-34.6-13.1-67.7-37-93.3l-.8-.8-54.8-69.1 45.5-36 53.3 67.3c33.4 36.2 51.7 83.1 51.7 131.9v20z" class="st0"/><path d="M710.4 685.1l-58-.2 1.1-369.4c.1-42.4 35.1-76.8 78.1-76.8h.3c28.7.3 56.5-.2 83.5-.6 27.3-.4 55.5-.9 85-.6 19.3.2 56 4.9 85.6 34.2 19.5 19.2 31.6 46.2 34.3 76 2.5 28.4-3.7 56.6-17.6 79.4-23.9 39.5-63.7 53.1-79.7 57.1l-41.4 10.5c-32.1 7.8-63.4 15.7-93.6 23.3-25 6.3-50.6 12.8-77 19.3l-.6 147.8zm21.1-388.4c-11 .1-19.9 8.6-20 19l-.5 161.8c21.3-5.3 42.2-10.6 62.6-15.7 30.3-7.7 61.7-15.6 94-23.4l41.1-10.4c9-2.2 31.4-9.8 44.2-30.9 15.7-25.9 12.1-64.4-7.9-84.2-15.6-15.4-36.9-17.3-45.4-17.4-28.6-.3-56.5.2-83.4.6-27.2.4-55.4.9-84.7.6z" class="st0"/></symbol><symbol id="react" viewBox="0 0 841.9 595.3"><g fill="#61DAFB"><path d="M666.3 296.5c0-32.5-40.7-63.3-103.1-82.4 14.4-63.6 8-114.2-20.2-130.4-6.5-3.8-14.1-5.6-22.4-5.6v22.3c4.6 0 8.3.9 11.4 2.6 13.6 7.8 19.5 37.5 14.9 75.7-1.1 9.4-2.9 19.3-5.1 29.4-19.6-4.8-41-8.5-63.5-10.9-13.5-18.5-27.5-35.3-41.6-50 32.6-30.3 63.2-46.9 84-46.9V78c-27.5 0-63.5 19.6-99.9 53.6-36.4-33.8-72.4-53.2-99.9-53.2v22.3c20.7 0 51.4 16.5 84 46.6-14 14.7-28 31.4-41.3 49.9-22.6 2.4-44 6.1-63.6 11-2.3-10-4-19.7-5.2-29-4.7-38.2 1.1-67.9 14.6-75.8 3-1.8 6.9-2.6 11.5-2.6V78.5c-8.4 0-16 1.8-22.6 5.6-28.1 16.2-34.4 66.7-19.9 130.1-62.2 19.2-102.7 49.9-102.7 82.3 0 32.5 40.7 63.3 103.1 82.4-14.4 63.6-8 114.2 20.2 130.4 6.5 3.8 14.1 5.6 22.5 5.6 27.5 0 63.5-19.6 99.9-53.6 36.4 33.8 72.4 53.2 99.9 53.2 8.4 0 16-1.8 22.6-5.6 28.1-16.2 34.4-66.7 19.9-130.1 62-19.1 102.5-49.9 102.5-82.3zm-130.2-66.7c-3.7 12.9-8.3 26.2-13.5 39.5-4.1-8-8.4-16-13.1-24-4.6-8-9.5-15.8-14.4-23.4 14.2 2.1 27.9 4.7 41 7.9zm-45.8 106.5c-7.8 13.5-15.8 26.3-24.1 38.2-14.9 1.3-30 2-45.2 2-15.1 0-30.2-.7-45-1.9-8.3-11.9-16.4-24.6-24.2-38-7.6-13.1-14.5-26.4-20.8-39.8 6.2-13.4 13.2-26.8 20.7-39.9 7.8-13.5 15.8-26.3 24.1-38.2 14.9-1.3 30-2 45.2-2 15.1 0 30.2.7 45 1.9 8.3 11.9 16.4 24.6 24.2 38 7.6 13.1 14.5 26.4 20.8 39.8-6.3 13.4-13.2 26.8-20.7 39.9zm32.3-13c5.4 13.4 10 26.8 13.8 39.8-13.1 3.2-26.9 5.9-41.2 8 4.9-7.7 9.8-15.6 14.4-23.7 4.6-8 8.9-16.1 13-24.1zM421.2 430c-9.3-9.6-18.6-20.3-27.8-32 9 .4 18.2.7 27.5.7 9.4 0 18.7-.2 27.8-.7-9 11.7-18.3 22.4-27.5 32zm-74.4-58.9c-14.2-2.1-27.9-4.7-41-7.9 3.7-12.9 8.3-26.2 13.5-39.5 4.1 8 8.4 16 13.1 24 4.7 8 9.5 15.8 14.4 23.4zM420.7 163c9.3 9.6 18.6 20.3 27.8 32-9-.4-18.2-.7-27.5-.7-9.4 0-18.7.2-27.8.7 9-11.7 18.3-22.4 27.5-32zm-74 58.9c-4.9 7.7-9.8 15.6-14.4 23.7-4.6 8-8.9 16-13 24-5.4-13.4-10-26.8-13.8-39.8 13.1-3.1 26.9-5.8 41.2-7.9zm-90.5 125.2c-35.4-15.1-58.3-34.9-58.3-50.6 0-15.7 22.9-35.6 58.3-50.6 8.6-3.7 18-7 27.7-10.1 5.7 19.6 13.2 40 22.5 60.9-9.2 20.8-16.6 41.1-22.2 60.6-9.9-3.1-19.3-6.5-28-10.2zM310 490c-13.6-7.8-19.5-37.5-14.9-75.7 1.1-9.4 2.9-19.3 5.1-29.4 19.6 4.8 41 8.5 63.5 10.9 13.5 18.5 27.5 35.3 41.6 50-32.6 30.3-63.2 46.9-84 46.9-4.5-.1-8.3-1-11.3-2.7zm237.2-76.2c4.7 38.2-1.1 67.9-14.6 75.8-3 1.8-6.9 2.6-11.5 2.6-20.7 0-51.4-16.5-84-46.6 14-14.7 28-31.4 41.3-49.9 22.6-2.4 44-6.1 63.6-11 2.3 10.1 4.1 19.8 5.2 29.1zm38.5-66.7c-8.6 3.7-18 7-27.7 10.1-5.7-19.6-13.2-40-22.5-60.9 9.2-20.8 16.6-41.1 22.2-60.6 9.9 3.1 19.3 6.5 28.1 10.2 35.4 15.1 58.3 34.9 58.3 50.6-.1 15.7-23 35.6-58.4 50.6zM320.8 78.4z"/><circle cx="420.9" cy="296.5" r="45.7"/></g></symbol><symbol id="redux" viewBox="0 0 100 100"><g fill="#764ABC"><path d="M65.6 65.4c2.9-.3 5.1-2.8 5-5.8-.1-3-2.6-5.4-5.6-5.4h-.2c-3.1.1-5.5 2.7-5.4 5.8.1 1.5.7 2.8 1.6 3.7-3.4 6.7-8.6 11.6-16.4 15.7-5.3 2.8-10.8 3.8-16.3 3.1-4.5-.6-8-2.6-10.2-5.9-3.2-4.9-3.5-10.2-.8-15.5 1.9-3.8 4.9-6.6 6.8-8-.4-1.3-1-3.5-1.3-5.1-14.5 10.5-13 24.7-8.6 31.4 3.3 5 10 8.1 17.4 8.1 2 0 4-.2 6-.7 12.8-2.5 22.5-10.1 28-21.4z"/><path d="M83.2 53c-7.6-8.9-18.8-13.8-31.6-13.8H50c-.9-1.8-2.8-3-4.9-3h-.2c-3.1.1-5.5 2.7-5.4 5.8.1 3 2.6 5.4 5.6 5.4h.2c2.2-.1 4.1-1.5 4.9-3.4H52c7.6 0 14.8 2.2 21.3 6.5 5 3.3 8.6 7.6 10.6 12.8 1.7 4.2 1.6 8.3-.2 11.8-2.8 5.3-7.5 8.2-13.7 8.2-4 0-7.8-1.2-9.8-2.1-1.1 1-3.1 2.6-4.5 3.6 4.3 2 8.7 3.1 12.9 3.1 9.6 0 16.7-5.3 19.4-10.6 2.9-5.8 2.7-15.8-4.8-24.3z"/><path d="M32.4 67.1c.1 3 2.6 5.4 5.6 5.4h.2c3.1-.1 5.5-2.7 5.4-5.8-.1-3-2.6-5.4-5.6-5.4h-.2c-.2 0-.5 0-.7.1-4.1-6.8-5.8-14.2-5.2-22.2.4-6 2.4-11.2 5.9-15.5 2.9-3.7 8.5-5.5 12.3-5.6 10.6-.2 15.1 13 15.4 18.3 1.3.3 3.5 1 5 1.5-1.2-16.2-11.2-24.6-20.8-24.6-9 0-17.3 6.5-20.6 16.1-4.6 12.8-1.6 25.1 4 34.8-.5.7-.8 1.8-.7 2.9z"/></g></symbol><symbol id="vue" viewBox="0 0 261.76 226.69"><path fill="#41b883" d="M161.096.001l-30.224 52.35L100.647.002H-.005L130.872 226.69 261.749 0z"/><path fill="#34495e" d="M161.096.001l-30.224 52.35L100.647.002H52.346l78.526 136.01L209.398.001z"/></symbol><symbol id="next" viewBox="0 0 394 80"><path d="M262 0h68.5v12.7h-27.2v66.6h-13.6V12.7H262V0zM149 0v12.7H94v20.4h44.3v12.6H94v21h55v12.6H80.5V0h68.7zm34.3 0h-17.8l63.8 79.4h17.9l-32-39.7 32-39.6h-17.9l-23 28.6-23-28.6zm18.3 56.7l-9-11-27.1 33.7h17.8l18.3-22.7z"/><path d="M81 79.3L17 0H0v79.3h13.6V17l50.2 62.3H81zm252.6-.4c-1 0-1.8-.4-2.5-1s-1.1-1.6-1.1-2.6.3-1.8 1-2.5 1.6-1 2.6-1 1.8.3 2.5 1a3.4 3.4 0 0 1 .6 4.3 3.7 3.7 0 0 1-3 1.8zm23.2-33.5h6v23.3c0 2.1-.4 4-1.3 5.5a9.1 9.1 0 0 1-3.8 3.5c-1.6.8-3.5 1.3-5.7 1.3-2 0-3.7-.4-5.3-1s-2.8-1.8-3.7-3.2c-.9-1.3-1.4-3-1.4-5h6c.1.8.3 1.6.7 2.2s1 1.2 1.6 1.5c.7.4 1.5.5 2.4.5 1 0 1.8-.2 2.4-.6a4 4 0 0 0 1.6-1.8c.3-.8.5-1.8.5-3V45.5zm30.9 9.1a4.4 4.4 0 0 0-2-3.3 7.5 7.5 0 0 0-4.3-1.1c-1.3 0-2.4.2-3.3.5-.9.4-1.6 1-2 1.6a3.5 3.5 0 0 0-.3 4c.3.5.7.9 1.3 1.2l1.8 1 2 .5 3.2.8c1.3.3 2.5.7 3.7 1.2a13 13 0 0 1 3.2 1.8 8.1 8.1 0 0 1 3 6.5c0 2-.5 3.7-1.5 5.1a10 10 0 0 1-4.4 3.5c-1.8.8-4.1 1.2-6.8 1.2-2.6 0-4.9-.4-6.8-1.2-2-.8-3.4-2-4.5-3.5a10 10 0 0 1-1.7-5.6h6a5 5 0 0 0 3.5 4.6c1 .4 2.2.6 3.4.6 1.3 0 2.5-.2 3.5-.6 1-.4 1.8-1 2.4-1.7a4 4 0 0 0 .8-2.4c0-.9-.2-1.6-.7-2.2a11 11 0 0 0-2.1-1.4l-3.2-1-3.8-1c-2.8-.7-5-1.7-6.6-3.2a7.2 7.2 0 0 1-2.4-5.7 8 8 0 0 1 1.7-5 10 10 0 0 1 4.3-3.5c2-.8 4-1.2 6.4-1.2 2.3 0 4.4.4 6.2 1.2 1.8.8 3.2 2 4.3 3.4 1 1.4 1.5 3 1.5 5h-5.8z"/></symbol><symbol id="css" viewBox="0 0 362.73 512"><path fill="#264de4" d="M362.734 100.62l-33.046 370.199L181.145 512 33.011 470.877 0 100.62z"/><path fill="#2965f1" d="M301.397 447.246l28.24-316.352h-148.27v349.629z"/><path fill="#ebebeb" d="M75.677 268.217l4.07 45.41h101.62v-45.41zm105.69-91.912H67.499l4.128 45.411h109.74zm0 257.094v-47.246l-.199.053-50.574-13.656-3.233-36.217H81.776l6.362 71.301 93.02 25.823z"/><path d="M85.367 0h55v23h-32v23h32v23h-55zm66 0h55v20h-32v4h32v46h-55V49h32v-4h-32zm66 0h55v20h-32v4h32v46h-55V49h32v-4h-32z"/><path fill="#fff" d="M237.128 313.627l-5.271 58.894-50.647 13.67v47.244l93.094-25.801.683-7.672 10.671-119.551 1.108-12.194 8.198-91.912H181.21v45.411h63.988l-4.132 46.501H181.21v45.41z"/></symbol><symbol id="javascript" viewBox="0 0 630 630"><path fill="#f7df1e" d="M0 0h630v630H0z"/><path d="M165.65 526.47l48.21-29.17c9.3 16.49 17.76 30.44 38.06 30.44 19.45 0 31.72-7.61 31.72-37.21v-201.3h59.2v202.14c0 61.32-35.94 89.23-88.38 89.23-47.36 0-74.86-24.53-88.81-54.13M375 520.13l48.21-27.91c12.69 20.72 29.18 35.95 58.36 35.95 24.53 0 40.17-12.27 40.17-29.18 0-20.3-16.07-27.49-43.13-39.33l-14.8-6.35c-42.72-18.18-71.05-41-71.05-89.23 0-44.4 33.83-78.23 86.69-78.23 37.64 0 64.71 13.11 84.16 47.36l-46.1 29.6c-10.15-18.18-21.14-25.37-38.06-25.37-17.33 0-28.33 11-28.33 25.37 0 17.77 11 25 36.37 35.95l14.8 6.35c50.32 21.56 78.66 43.55 78.66 93 0 53.29-41.87 82.46-98.11 82.46-55 0-90.5-26.21-107.84-60.47"/></symbol><symbol id="angular" viewBox="0 0 250 250"><path fill="#DD0031" d="M125 30L31.9 63.2l14.2 123.1L125 230l78.9-43.7 14.2-123.1z"/><path d="M125 30v22.2-.1V230l78.9-43.7 14.2-123.1L125 30z" fill="#C3002F"/><path d="M125 52.1L66.8 182.6h21.7l11.7-29.2h49.4l11.7 29.2H183L125 52.1zm17 83.3h-34l17-40.9 17 40.9z" fill="#FFFFFF" /></symbol><symbol id="html" viewBox="0 0 512 512"><path fill="#E44D26" d="M107.644 470.877L74.633 100.62h362.734l-33.046 370.199L255.778 512z"/><path fill="#F16529" d="M256 480.523l120.03-33.277 28.24-316.352H256z"/><path fill="#EBEBEB" d="M256 268.217h-60.09l-4.15-46.501H256v-45.411H142.132l1.087 12.183 11.161 125.139H256zm0 117.936l-.199.053-50.574-13.656-3.233-36.217h-45.585l6.362 71.301 93.02 25.823.209-.058z"/><path d="M108.382 0h23.077v22.8h21.11V0h23.078v69.044H152.57v-23.12h-21.11v23.12h-23.077V0zm97.612 22.896h-20.316V0h63.72v22.896h-20.325v46.148h-23.078V22.896zM259.511 0h24.063l14.802 24.26L313.163 0h24.072v69.044h-22.982V34.822l-15.877 24.549h-.397l-15.888-24.549v34.222h-22.58V0zm89.209 0h23.084v46.222h32.453v22.822H348.72V0z"/><path fill="#FFF" d="M255.843 268.217v45.41h55.918l-5.271 58.894-50.647 13.67v47.244l93.094-25.801.683-7.672 10.671-119.551 1.108-12.194h-12.237zm0-91.912v45.411h109.688l.911-10.207 2.069-23.021 1.086-12.183z"/></symbol><symbol id="typescript" viewBox="0 0 512 512"><rect fill="#3178c6" height="512" rx="50" width="512"/><rect fill="#3178c6" height="512" rx="50" width="512"/><path clip-rule="evenodd" d="m316.939 407.424v50.061c8.138 4.172 17.763 7.3 28.875 9.386s22.823 3.129 35.135 3.129c11.999 0 23.397-1.147 34.196-3.442 10.799-2.294 20.268-6.075 28.406-11.342 8.138-5.266 14.581-12.15 19.328-20.65s7.121-19.007 7.121-31.522c0-9.074-1.356-17.026-4.069-23.857s-6.625-12.906-11.738-18.225c-5.112-5.319-11.242-10.091-18.389-14.315s-15.207-8.213-24.18-11.967c-6.573-2.712-12.468-5.345-17.685-7.9-5.217-2.556-9.651-5.163-13.303-7.822-3.652-2.66-6.469-5.476-8.451-8.448-1.982-2.973-2.974-6.336-2.974-10.091 0-3.441.887-6.544 2.661-9.308s4.278-5.136 7.512-7.118c3.235-1.981 7.199-3.52 11.894-4.615 4.696-1.095 9.912-1.642 15.651-1.642 4.173 0 8.581.313 13.224.938 4.643.626 9.312 1.591 14.008 2.894 4.695 1.304 9.259 2.947 13.694 4.928 4.434 1.982 8.529 4.276 12.285 6.884v-46.776c-7.616-2.92-15.937-5.084-24.962-6.492s-19.381-2.112-31.066-2.112c-11.895 0-23.163 1.278-33.805 3.833s-20.006 6.544-28.093 11.967c-8.086 5.424-14.476 12.333-19.171 20.729-4.695 8.395-7.043 18.433-7.043 30.114 0 14.914 4.304 27.638 12.912 38.172 8.607 10.533 21.675 19.45 39.204 26.751 6.886 2.816 13.303 5.579 19.25 8.291s11.086 5.528 15.415 8.448c4.33 2.92 7.747 6.101 10.252 9.543 2.504 3.441 3.756 7.352 3.756 11.733 0 3.233-.783 6.231-2.348 8.995s-3.939 5.162-7.121 7.196-7.147 3.624-11.894 4.771c-4.748 1.148-10.303 1.721-16.668 1.721-10.851 0-21.597-1.903-32.24-5.71-10.642-3.806-20.502-9.516-29.579-17.13zm-84.159-123.342h64.22v-41.082h-179v41.082h63.906v182.918h50.874z" fill="#fff" fill-rule="evenodd"/></symbol><symbol id="chart" viewBox="0 -960 960 960"><path d="M640-160v-280h160v280H640Zm-240 0v-640h160v640H400Zm-240 0v-440h160v440H160Z"/></symbol></svg>