<svg viewBox="current" xmlns="http://www.w3.org/2000/svg">
  <symbol id="btn-add">
    <path d="M11 13H5V11H11V5H13V11H19V13H13V19H11V13Z" fill="current"/>
  </symbol>
  <symbol id="btn-like">
    <path d="M12 21L10.55 19.7C8.86667 18.1834 7.475 16.875 6.375 15.775C5.275 14.675 4.4 13.6875 3.75 12.8125C3.1 11.9375 2.64583 11.1334 2.3875 10.4C2.12917 9.66669 2 8.91669 2 8.15002C2 6.58336 2.525 5.27502 3.575 4.22502C4.625 3.17502 5.93333 2.65002 7.5 2.65002C8.36667 2.65002 9.19167 2.83336 9.975 3.20002C10.7583 3.56669 11.4333 4.08336 12 4.75002C12.5667 4.08336 13.2417 3.56669 14.025 3.20002C14.8083 2.83336 15.6333 2.65002 16.5 2.65002C18.0667 2.65002 19.375 3.17502 20.425 4.22502C21.475 5.27502 22 6.58336 22 8.15002C22 8.91669 21.8708 9.66669 21.6125 10.4C21.3542 11.1334 20.9 11.9375 20.25 12.8125C19.6 13.6875 18.725 14.675 17.625 15.775C16.525 16.875 15.1333 18.1834 13.45 19.7L12 21Z" fill="current"/>
  </symbol>
  <symbol id="btn-check">
    <path d="M10.6 16.6L17.65 9.55L16.25 8.15L10.6 13.8L7.75 10.95L6.35 12.35L10.6 16.6ZM12 22C10.6167 22 9.31667 21.7375 8.1 21.2125C6.88333 20.6875 5.825 19.975 4.925 19.075C4.025 18.175 3.3125 17.1167 2.7875 15.9C2.2625 14.6833 2 13.3833 2 12C2 10.6167 2.2625 9.31667 2.7875 8.1C3.3125 6.88333 4.025 5.825 4.925 4.925C5.825 4.025 6.88333 3.3125 8.1 2.7875C9.31667 2.2625 10.6167 2 12 2C13.3833 2 14.6833 2.2625 15.9 2.7875C17.1167 3.3125 18.175 4.025 19.075 4.925C19.975 5.825 20.6875 6.88333 21.2125 8.1C21.7375 9.31667 22 10.6167 22 12C22 13.3833 21.7375 14.6833 21.2125 15.9C20.6875 17.1167 19.975 18.175 19.075 19.075C18.175 19.975 17.1167 20.6875 15.9 21.2125C14.6833 21.7375 13.3833 22 12 22Z" fill="current"/>
  </symbol>
  <symbol id="btn-filter">
    <path d="M11 20C10.7167 20 10.4792 19.9042 10.2875 19.7125C10.0958 19.5208 9.99999 19.2833 9.99999 19V13L4.19999 5.6C3.94999 5.26667 3.91249 4.91667 4.08749 4.55C4.26249 4.18333 4.56666 4 4.99999 4H19C19.4333 4 19.7375 4.18333 19.9125 4.55C20.0875 4.91667 20.05 5.26667 19.8 5.6L14 13V19C14 19.2833 13.9042 19.5208 13.7125 19.7125C13.5208 19.9042 13.2833 20 13 20H11Z" fill="current"/>
  </symbol>
  <symbol id="btn-home">
    <path d="M4 21V9L12 3L20 9V21H14V14H10V21H4Z" fill="current"/>
  </symbol>
  <symbol id="btn-news">
    <path d="M4 21C3.45 21 2.97917 20.8042 2.5875 20.4125C2.19583 20.0208 2 19.55 2 19V5C2 4.45 2.19583 3.97917 2.5875 3.5875C2.97917 3.19583 3.45 3 4 3H20C20.55 3 21.0208 3.19583 21.4125 3.5875C21.8042 3.97917 22 4.45 22 5V19C22 19.55 21.8042 20.0208 21.4125 20.4125C21.0208 20.8042 20.55 21 20 21H4ZM6 17H18V15H6V17ZM6 13H10V7H6V13ZM12 13H18V11H12V13ZM12 9H18V7H12V9Z" fill="current"/>
  </symbol>
  <symbol id="btn-search">
    <path d="M19.6 21L13.3 14.7C12.8 15.1 12.225 15.4167 11.575 15.65C10.925 15.8833 10.2333 16 9.5 16C7.68333 16 6.14583 15.3708 4.8875 14.1125C3.62917 12.8542 3 11.3167 3 9.5C3 7.68333 3.62917 6.14583 4.8875 4.8875C6.14583 3.62917 7.68333 3 9.5 3C11.3167 3 12.8542 3.62917 14.1125 4.8875C15.3708 6.14583 16 7.68333 16 9.5C16 10.2333 15.8833 10.925 15.65 11.575C15.4167 12.225 15.1 12.8 14.7 13.3L21 19.6L19.6 21ZM9.5 14C10.75 14 11.8125 13.5625 12.6875 12.6875C13.5625 11.8125 14 10.75 14 9.5C14 8.25 13.5625 7.1875 12.6875 6.3125C11.8125 5.4375 10.75 5 9.5 5C8.25 5 7.1875 5.4375 6.3125 6.3125C5.4375 7.1875 5 8.25 5 9.5C5 10.75 5.4375 11.8125 6.3125 12.6875C7.1875 13.5625 8.25 14 9.5 14Z" fill="current"/>
  </symbol>
</svg>